<svg width="23" height="24" viewBox="0 0 23 24" fill="none" xmlns="http://www.w3.org/2000/svg">
<mask id="path-1-outside-1" maskUnits="userSpaceOnUse" x="-1.04165" y="-0.727922" width="25.4558" height="25.4558" fill="black">
<rect fill="white" x="-1.04165" y="-0.727922" width="25.4558" height="25.4558"/>
<path fill-rule="evenodd" clip-rule="evenodd" d="M6.02943 6.34313C5.83416 6.53839 5.83416 6.85498 6.02943 7.05024L10.9792 12L6.02947 16.9498C5.83421 17.1451 5.83421 17.4617 6.02947 17.6569C6.22474 17.8522 6.54132 17.8522 6.73658 17.6569L11.6863 12.7072L16.636 17.6568C16.8313 17.8521 17.1479 17.8521 17.3431 17.6568C17.5384 17.4616 17.5384 17.145 17.3431 16.9497L12.3934 12L17.3432 7.05031C17.5384 6.85505 17.5384 6.53847 17.3432 6.34321C17.1479 6.14794 16.8313 6.14794 16.6361 6.34321L11.6863 11.2929L6.73653 6.34313C6.54127 6.14787 6.22469 6.14787 6.02943 6.34313Z"/>
</mask>
<path fill-rule="evenodd" clip-rule="evenodd" d="M6.02943 6.34313C5.83416 6.53839 5.83416 6.85498 6.02943 7.05024L10.9792 12L6.02947 16.9498C5.83421 17.1451 5.83421 17.4617 6.02947 17.6569C6.22474 17.8522 6.54132 17.8522 6.73658 17.6569L11.6863 12.7072L16.636 17.6568C16.8313 17.8521 17.1479 17.8521 17.3431 17.6568C17.5384 17.4616 17.5384 17.145 17.3431 16.9497L12.3934 12L17.3432 7.05031C17.5384 6.85505 17.5384 6.53847 17.3432 6.34321C17.1479 6.14794 16.8313 6.14794 16.6361 6.34321L11.6863 11.2929L6.73653 6.34313C6.54127 6.14787 6.22469 6.14787 6.02943 6.34313Z" fill="#CBCBCB"/>
<path d="M10.9792 12L11.3328 12.3536L11.6863 12L11.3328 11.6465L10.9792 12ZM6.02947 16.9498L6.38303 17.3034L6.02947 16.9498ZM6.73658 17.6569L7.09013 18.0105L6.73658 17.6569ZM11.6863 12.7072L12.0399 12.3536L11.6863 12L11.3328 12.3536L11.6863 12.7072ZM12.3934 12L12.0399 11.6465L11.6863 12L12.0399 12.3536L12.3934 12ZM11.6863 11.2929L11.3328 11.6465L11.6863 12L12.0399 11.6465L11.6863 11.2929ZM6.38298 6.69669L5.67587 5.98958C5.28535 6.3801 5.28535 7.01327 5.67587 7.40379L6.38298 6.69669ZM11.3328 11.6465L6.38298 6.69669L5.67587 7.40379L10.6257 12.3536L11.3328 11.6465ZM6.38303 17.3034L11.3328 12.3536L10.6257 11.6465L5.67592 16.5963L6.38303 17.3034ZM6.38303 17.3034L6.38303 17.3034L5.67592 16.5963C5.2854 16.9868 5.2854 17.6199 5.67592 18.0105L6.38303 17.3034ZM6.38303 17.3034L6.38303 17.3034L5.67592 18.0105C6.06644 18.401 6.69961 18.401 7.09013 18.0105L6.38303 17.3034ZM11.3328 12.3536L6.38303 17.3034L7.09013 18.0105L12.0399 13.0607L11.3328 12.3536ZM16.9896 17.3033L12.0399 12.3536L11.3328 13.0607L16.2825 18.0104L16.9896 17.3033ZM16.9896 17.3033L16.2825 18.0104C16.673 18.4009 17.3062 18.4009 17.6967 18.0104L16.9896 17.3033ZM16.9896 17.3033L17.6967 18.0104C18.0872 17.6199 18.0872 16.9867 17.6967 16.5962L16.9896 17.3033ZM12.0399 12.3536L16.9896 17.3033L17.6967 16.5962L12.747 11.6465L12.0399 12.3536ZM16.9896 6.69676L12.0399 11.6465L12.747 12.3536L17.6967 7.40387L16.9896 6.69676ZM16.9896 6.69676L16.9896 6.69676L17.6967 7.40387C18.0873 7.01334 18.0873 6.38018 17.6967 5.98965L16.9896 6.69676ZM16.9896 6.69676L16.9896 6.69676L17.6967 5.98965C17.3062 5.59913 16.673 5.59913 16.2825 5.98965L16.9896 6.69676ZM12.0399 11.6465L16.9896 6.69676L16.2825 5.98965L11.3328 10.9394L12.0399 11.6465ZM6.38298 6.69669L11.3328 11.6465L12.0399 10.9394L7.09009 5.98958L6.38298 6.69669ZM6.38298 6.69669L7.09009 5.98958C6.69956 5.59905 6.0664 5.59906 5.67587 5.98958L6.38298 6.69669Z" fill="#CBCBCB" mask="url(#path-1-outside-1)"/>
</svg>
