<svg width="48" height="48" viewBox="0 0 48 48" fill="none" xmlns="http://www.w3.org/2000/svg">
<mask id="path-1-outside-1" maskUnits="userSpaceOnUse" x="-0.0416549" y="-0.0416301" width="48.0833" height="48.0833" fill="black">
<rect fill="white" x="-0.0416549" y="-0.0416301" width="48.0833" height="48.0833"/>
<path fill-rule="evenodd" clip-rule="evenodd" d="M12.6863 12.6863C12.2957 13.0768 12.2957 13.71 12.6863 14.1005L22.5858 24L12.6863 33.8995C12.2957 34.29 12.2957 34.9232 12.6863 35.3137C13.0768 35.7042 13.71 35.7042 14.1005 35.3137L24 25.4142L33.8995 35.3137C34.29 35.7042 34.9232 35.7042 35.3137 35.3137C35.7042 34.9232 35.7042 34.29 35.3137 33.8995L25.4142 24L35.3137 14.1005C35.7042 13.71 35.7042 13.0768 35.3137 12.6863C34.9232 12.2958 34.29 12.2958 33.8995 12.6863L24 22.5858L14.1005 12.6863C13.71 12.2958 13.0768 12.2958 12.6863 12.6863Z"/>
</mask>
<path fill-rule="evenodd" clip-rule="evenodd" d="M12.6863 12.6863C12.2957 13.0768 12.2957 13.71 12.6863 14.1005L22.5858 24L12.6863 33.8995C12.2957 34.29 12.2957 34.9232 12.6863 35.3137C13.0768 35.7042 13.71 35.7042 14.1005 35.3137L24 25.4142L33.8995 35.3137C34.29 35.7042 34.9232 35.7042 35.3137 35.3137C35.7042 34.9232 35.7042 34.29 35.3137 33.8995L25.4142 24L35.3137 14.1005C35.7042 13.71 35.7042 13.0768 35.3137 12.6863C34.9232 12.2958 34.29 12.2958 33.8995 12.6863L24 22.5858L14.1005 12.6863C13.71 12.2958 13.0768 12.2958 12.6863 12.6863Z" fill="#CBCBCB"/>
<path d="M22.5858 24L22.9393 24.3536L23.2929 24L22.9393 23.6464L22.5858 24ZM24 25.4142L24.3535 25.0607L24 24.7071L23.6464 25.0607L24 25.4142ZM25.4142 24L25.0606 23.6464L24.7071 24L25.0606 24.3536L25.4142 24ZM24 22.5858L23.6464 22.9393L24 23.2929L24.3535 22.9393L24 22.5858ZM13.0398 13.747C12.8446 13.5517 12.8446 13.2351 13.0398 13.0398L12.3327 12.3327C11.7469 12.9185 11.7469 13.8683 12.3327 14.4541L13.0398 13.747ZM22.9393 23.6464L13.0398 13.747L12.3327 14.4541L22.2322 24.3536L22.9393 23.6464ZM13.0398 34.253L22.9393 24.3536L22.2322 23.6464L12.3327 33.5459L13.0398 34.253ZM13.0398 34.9602C12.8446 34.7649 12.8446 34.4483 13.0398 34.253L12.3327 33.5459C11.7469 34.1317 11.7469 35.0815 12.3327 35.6673L13.0398 34.9602ZM13.7469 34.9602C13.5517 35.1554 13.2351 35.1554 13.0398 34.9602L12.3327 35.6673C12.9185 36.253 13.8682 36.253 14.454 35.6673L13.7469 34.9602ZM23.6464 25.0607L13.7469 34.9602L14.454 35.6673L24.3535 25.7678L23.6464 25.0607ZM34.253 34.9602L24.3535 25.0607L23.6464 25.7678L33.5459 35.6673L34.253 34.9602ZM34.9601 34.9602C34.7649 35.1554 34.4483 35.1554 34.253 34.9602L33.5459 35.6673C34.1317 36.253 35.0814 36.253 35.6672 35.6673L34.9601 34.9602ZM34.9601 34.253C35.1554 34.4483 35.1554 34.7649 34.9601 34.9602L35.6672 35.6673C36.253 35.0815 36.253 34.1317 35.6672 33.5459L34.9601 34.253ZM25.0606 24.3536L34.9601 34.253L35.6672 33.5459L25.7677 23.6464L25.0606 24.3536ZM34.9601 13.747L25.0606 23.6464L25.7677 24.3536L35.6672 14.4541L34.9601 13.747ZM34.9601 13.0398C35.1554 13.2351 35.1554 13.5517 34.9601 13.747L35.6672 14.4541C36.253 13.8683 36.253 12.9185 35.6672 12.3327L34.9601 13.0398ZM34.253 13.0398C34.4483 12.8446 34.7649 12.8446 34.9601 13.0398L35.6672 12.3327C35.0814 11.747 34.1317 11.747 33.5459 12.3327L34.253 13.0398ZM24.3535 22.9393L34.253 13.0398L33.5459 12.3327L23.6464 22.2322L24.3535 22.9393ZM13.7469 13.0398L23.6464 22.9393L24.3535 22.2322L14.454 12.3327L13.7469 13.0398ZM13.0398 13.0398C13.2351 12.8446 13.5517 12.8446 13.7469 13.0398L14.454 12.3327C13.8682 11.747 12.9185 11.747 12.3327 12.3327L13.0398 13.0398Z" fill="#CBCBCB" mask="url(#path-1-outside-1)"/>
</svg>
