<svg width="16" height="16" viewBox="0 0 16 16" fill="none" xmlns="http://www.w3.org/2000/svg">
<path fill-rule="evenodd" clip-rule="evenodd" d="M14.7881 11.2969C13.1312 9.64089 12.5098 9.72978 10.3552 10.872C9.04317 11.568 8.55517 11.2542 6.6485 9.35022C4.74272 7.44267 4.43073 6.95556 5.12584 5.64444C6.26895 3.488 6.35873 2.86933 4.70006 1.21244C3.7605 0.272 3.45917 0 2.79517 0C2.31072 0 1.79606 0.318222 1.01828 1.096C-0.210164 2.32356 -0.307053 3.37778 0.619169 5.43289C1.3525 7.06311 2.4725 9.21155 4.62895 11.368C6.78628 13.5244 8.93384 14.6453 10.5658 15.3787C12.2512 16.1351 13.4681 16.4098 14.9036 14.9787C15.6841 14.2027 15.9996 13.6862 15.9996 13.2027C15.9996 12.5387 15.7285 12.2391 14.7881 11.2978" fill="#41D9CC"/>
</svg>
