<svg width="32" height="32" viewBox="0 0 32 32" fill="none" xmlns="http://www.w3.org/2000/svg">
<rect width="32" height="32" rx="8" fill="#00A6E2"/>
<path d="M27.3168 19.9007H23.9127L20.1309 11.2656H23.5703L27.3168 19.9007Z" fill="white"/>
<path d="M16.0998 19.896V11.3219C16.7443 11.3198 17.3806 11.471 17.9584 11.7635C18.5364 12.0561 19.0401 12.482 19.43 13.0077L19.6759 12.8151C19.105 12.0481 18.3138 11.4838 17.4135 11.2017C16.5132 10.9195 15.5491 10.9337 14.6571 11.2423C13.7651 11.5509 12.99 12.1382 12.441 12.9217C11.892 13.7052 11.5967 14.6453 11.5967 15.6098C11.5967 16.5742 11.892 17.5143 12.441 18.2978C12.99 19.0813 13.7651 19.6686 14.6571 19.9772C15.5491 20.2858 16.5132 20.3 17.4135 20.0178C18.3138 19.7357 19.105 19.1714 19.6759 18.4044L19.43 18.2102C19.0407 18.7358 18.5375 19.1617 17.9602 19.4543C17.3829 19.7468 16.7471 19.898 16.103 19.896" fill="white"/>
<path d="M6.00458 11.0029C5.21849 11.0022 4.44589 11.2123 3.76373 11.6125C3.08158 12.0127 2.51366 12.5889 2.11652 13.2838C1.71938 13.9788 1.50688 14.7681 1.50016 15.5733C1.49345 16.3785 1.69277 17.1715 2.07826 17.8733C2.46376 18.575 3.02199 19.1611 3.69737 19.5732C4.37275 19.9852 5.14172 20.2089 5.92772 20.2218C6.71372 20.2348 7.48934 20.0367 8.17733 19.6471C8.86532 19.2576 9.4417 18.6902 9.84907 18.0015L9.58388 17.8369C9.21147 18.4673 8.68608 18.9881 8.05883 19.3487C7.43159 19.7094 6.72388 19.8975 6.00458 19.8948V15.6143H10.5048C10.5048 14.3918 10.0307 13.2192 9.18673 12.3547C8.34278 11.4902 7.19813 11.0046 6.00458 11.0046V11.0029Z" fill="white"/>
<path d="M27.7553 11.2383C28.2185 11.0036 28.7476 10.9436 29.2497 11.0688C29.7518 11.1941 30.1946 11.4966 30.5005 11.9232L28.9447 15.4974C28.4331 15.5481 27.9202 15.4136 27.4953 15.1172C27.0705 14.8208 26.7604 14.3813 26.619 13.8751C26.4776 13.3688 26.5139 12.8278 26.7215 12.3461C26.929 11.8644 27.295 11.4724 27.7553 11.2383Z" fill="white"/>
</svg>
