<svg width="144" height="24" xmlns="http://www.w3.org/2000/svg"><path d="M18.578 9.821a.539.539 0 0 1 0-.762l3.952-3.954a.54.54 0 0 1 .763 0l7.983 7.984a1.55 1.55 0 0 1-.012 2.16l-8.194 8.197a.54.54 0 0 1-.382.16h-7.91a.539.539 0 0 1-.364-.938l8.123-8.127a.537.537 0 0 0 0-.76l-3.96-3.96h.001zm-5.446 3.965a.539.539 0 0 1 0 .762l-3.95 3.954a.54.54 0 0 1-.764 0L.432 10.519a1.55 1.55 0 0 1 .013-2.16L8.641.16a.542.542 0 0 1 .382-.158h7.91a.539.539 0 0 1 .362.937L9.172 9.067a.54.54 0 0 0 0 .76l3.96 3.96v-.001zm28.008.18c.82.746 2.087 1.193 3.304 1.193.871 0 1.541-.423 1.541-1.019 0-1.813-5.838-1.168-5.838-5.045 0-2.31 2.236-3.752 4.622-3.752 1.565 0 3.28.598 4.074 1.218l-1.515 2.334c-.622-.445-1.44-.818-2.313-.818-.893 0-1.64.35-1.64.971 0 1.562 5.841.941 5.841 5.119 0 2.309-2.261 3.726-4.795 3.726-1.666 0-3.431-.573-4.847-1.614l1.566-2.313zm13.169-.547a3.535 3.535 0 0 0 2.908 1.492c1.813 0 3.181-1.392 3.181-3.28 0-1.74-1.217-3.304-3.107-3.304a3.71 3.71 0 0 0-2.982 1.488v3.604zm-3.23-7.826h3.107v.968c.943-.77 2.162-1.218 3.528-1.218 3.281 0 5.914 2.734 5.914 6.287 0 1.64-.571 3.131-1.516 4.225-1.069 1.243-2.782 2.038-4.572 2.038-1.217 0-2.261-.349-3.231-1.094v6.81h-3.23V5.592zm22.171 4.472c-.1-1.07-1.069-2.113-2.386-2.113-1.341 0-2.436 1.02-2.585 2.113h4.971zm3.008 5.665c-1.168 1.392-3.082 2.163-4.946 2.163-3.604 0-6.312-2.485-6.312-6.264 0-3.353 2.285-6.286 5.864-6.286 3.331 0 5.692 2.81 5.692 6.164 0 .322-.025.646-.076.918h-8.348c.173 1.691 1.538 2.858 3.254 2.858 1.367 0 2.46-.768 3.033-1.39l1.839 1.837zm2.162 1.914V5.594h3.107v.967a5.305 5.305 0 0 1 3.405-1.218 5.43 5.43 0 0 1 4.175 1.939c.794.942 1.241 2.16 1.241 4.225v6.137H87.12v-6.386c0-1.193-.273-1.815-.722-2.262-.422-.423-1.068-.67-1.813-.67-1.367 0-2.486.868-2.934 1.489v7.83h-3.23zm22.991-7.83a3.707 3.707 0 0 0-2.983-1.487c-1.889 0-3.105 1.563-3.105 3.302 0 1.888 1.365 3.282 3.18 3.282a3.531 3.531 0 0 0 2.908-1.492V9.815zm.123 7.83v-.968c-.995.845-2.136 1.217-3.354 1.217-1.79 0-3.48-.796-4.547-2.038a6.468 6.468 0 0 1-1.542-4.226c0-3.552 2.634-6.286 5.915-6.286 1.317 0 2.46.373 3.404 1.117V0h3.231v17.644h-3.107zm13.288-7.58c-.1-1.068-1.07-2.112-2.386-2.112-1.342 0-2.436 1.02-2.585 2.113h4.97zm3.005 5.666c-1.167 1.392-3.08 2.163-4.944 2.163-3.603 0-6.312-2.485-6.312-6.264 0-3.353 2.285-6.286 5.865-6.286 3.33 0 5.69 2.81 5.69 6.164 0 .322-.024.646-.073.918h-8.35c.172 1.691 1.54 2.858 3.254 2.858 1.367 0 2.461-.768 3.033-1.39l1.837 1.837zm3.328-1.764c.82.746 2.087 1.193 3.306 1.193.87 0 1.54-.423 1.54-1.019 0-1.813-5.84-1.168-5.84-5.045 0-2.31 2.236-3.752 4.622-3.752 1.565 0 3.281.598 4.075 1.218l-1.515 2.334c-.62-.445-1.441-.818-2.312-.818-.894 0-1.64.35-1.64.971 0 1.562 5.84.941 5.84 5.119 0 2.309-2.261 3.726-4.795 3.726-1.666 0-3.43-.573-4.846-1.614l1.565-2.313zm15.727-2.957l6.636 6.635h-4.35l-5.094-5.219v5.22h-3.23V0h3.23v9.493l4.15-3.9h4.549l-5.891 5.416z" fill="#FFF" fill-rule="evenodd"/></svg>